<?xml version="1.0" encoding="UTF-8" standalone="no"?>
<svg width="236px" height="286px" viewBox="0 0 236 286"
 xmlns="http://www.w3.org/2000/svg" xmlns:xlink="http://www.w3.org/1999/xlink" version="1.2" baseProfile="tiny">
<title>asdf</title>
<desc>Generated by MuseScore 3.6.2</desc>
<polyline class="" fill="none" stroke="#000000" stroke-width="2.73" stroke-linejoin="bevel" points="-1.11687,76.9384 255.574,76.9384"/>
<polyline class="" fill="none" stroke="#000000" stroke-width="2.73" stroke-linejoin="bevel" points="-1.11687,101.738 255.574,101.738"/>
<polyline class="" fill="none" stroke="#000000" stroke-width="2.73" stroke-linejoin="bevel" points="-1.11687,126.539 255.574,126.539"/>
<polyline class="" fill="none" stroke="#000000" stroke-width="2.73" stroke-linejoin="bevel" points="-1.11687,151.339 255.574,151.339"/>
<polyline class="" fill="none" stroke="#000000" stroke-width="2.73" stroke-linejoin="bevel" points="-1.11687,176.139 255.574,176.139"/>
<path class="" transform="matrix(0.992001,0,0,0.992001,113.793,250.539)" d="M23.2969,-10.5938 C23.9063,-10.7031 24.4063,-11.4063 24.4063,-12 L24.4063,-17.9063 C24.4063,-18.7031 23.7969,-19.2969 23,-19.2969 L22.7969,-19.2969 L19.5,-18.5938 L19.5,-33.5 L16.7031,-33.5 L16.7031,-18 L7.79688,-16.2031 L7.79688,-30.2969 L5,-30.2969 L5,-15.5938 L1.09375,-14.7969 C0.5,-14.7031 0,-14 0,-13.4063 L0,-13.2031 L0,-7.40625 L0,-7.59375 C0,-6.79688 0.59375,-6.20313 1.40625,-6.20313 L1.70313,-6.20313 L5,-6.90625 L5,9.59375 L1.09375,10.4063 C0.5,10.5 0,11.2031 0,11.7969 L0,17.5938 C0,18.4063 0.59375,19 1.40625,19 L1.70313,19 L5,18.2969 L5,33.2031 L7.79688,33.2031 L7.79688,17.7031 L16.7031,15.9063 L16.7031,30 L19.5,30 L19.5,15.2969 L23.2969,14.5938 C23.9063,14.5 24.4063,13.7969 24.4063,13.2031 L24.4063,7.29688 C24.4063,6.5 23.7969,5.90625 23,5.90625 L22.7969,5.90625 L19.5,6.59375 L19.5,-9.90625 L23.2969,-10.5938 M7.79688,9.09375 L7.79688,-7.5 L16.7031,-9.29688 L16.7031,7.20313 L7.79688,9.09375 "/>
<polyline class="" fill="none" stroke="#000000" stroke-width="3.97" stroke-linejoin="bevel" points="144.196,250.539 198.554,250.539"/>
<polyline class="" fill="none" stroke="#000000" stroke-width="3.97" stroke-linejoin="bevel" points="144.196,225.739 198.554,225.739"/>
<polyline class="" fill="none" stroke="#000000" stroke-width="3.97" stroke-linejoin="bevel" points="144.196,200.939 198.554,200.939"/>
<path class="" transform="matrix(0.992001,0,0,0.992001,152.876,250.539)" d="M18.7031,-13.5938 C4.90625,-13.5938 0,-6.59375 0,-0.09375 C0,6.40625 4.90625,13.4063 18.7031,13.4063 C32.5,13.4063 37.2969,6.40625 37.2969,-0.09375 C37.2969,-6.59375 32.5,-13.5938 18.7031,-13.5938 M10.4063,-4.5 C10.2969,-4.90625 10.2969,-5.29688 10.2969,-5.70313 C10.2969,-6.5 10.5,-7.29688 10.9063,-8 C11.5938,-9 12.7969,-9.70313 14.2969,-10 C15.5938,-10.2969 16.2969,-10.5 18.9063,-10.5 L19,-10.5 C23,-10.5 24.2969,-6.79688 25.4063,-3 L25.7031,-2 C26.5,0.59375 26.9063,2.79688 26.9063,4.5 C26.9063,5.70313 26.7031,6.79688 26.2969,7.59375 C25.7031,8.70313 24.7031,9.40625 23,9.79688 C22.0938,10 20.5938,10.0938 20.5938,10.0938 C20.0938,10.0938 19.7031,10.2031 19.2969,10.2031 C16.0938,10.2031 14.0938,9 12.7031,4.70313 C11.5,1 11.2969,-0.09375 10.4063,-4.5"/>
<path class="" transform="matrix(0.992001,0,0,0.992001,18.7232,151.339)" d="M63.3594,-5.92188 C62.125,-11.3438 59.4844,-15.1719 58.7031,-16.2031 C55.5156,-20.4844 51.5,-23.3281 46.8125,-24.6875 C43.7031,-25.5625 40.7031,-25.6875 38.2813,-25.5 C37.2344,-31.5156 36.2344,-37.3906 35.3281,-42.8438 C40.7813,-49.0156 44.4063,-54.8125 46.6875,-59.1094 C50.1563,-65.6875 51.2969,-70.2656 51.3594,-70.4688 C53.0781,-75.6875 53.4375,-83.3906 52.3281,-91.5938 C51.3281,-99.1406 49.2344,-105.859 46.875,-109.109 C45.8594,-110.531 44.7969,-111.266 43.7656,-111.266 C42.5469,-111.266 40.0313,-110.031 37.1406,-107.25 C34.8438,-105.063 31.5781,-101.172 29.0156,-95.1563 C26.0156,-88.0938 25.7969,-78.6094 26.1563,-71.8906 C26.5313,-64.6094 27.6406,-58.9219 27.6563,-58.875 C27.6719,-58.7813 27.9375,-57.2813 28.375,-54.7188 C28.1563,-54.4844 27.9063,-54.2656 27.6563,-54.0156 C26.625,-53.0156 25.4375,-51.8906 24.0469,-50.5 C23.1875,-49.6406 22.2344,-48.7344 21.2344,-47.7656 C12.7969,-39.625 0,-27.2969 0,-8.14063 C0,-3.4375 0.90625,0.984375 2.6875,5 C4.26563,8.59375 6.5625,11.875 9.5,14.75 C17.2344,22.3125 27.8281,25.5156 34.875,25.3594 C37.8281,25.2813 40.4688,25.0469 42.8594,24.5938 C44.6875,34.2031 45.8281,41.2344 45.8594,46.5781 C45.9063,53.0938 44.25,57.0781 40.3594,59.8438 C37.9219,61.5781 35.1094,62.5313 32.0156,62.6719 C29.4219,62.7969 27.1563,62.3281 25.7344,61.9219 L25.7188,61.9219 C25.7188,61.9219 25.4375,61.8281 25.4219,61.6406 C25.4063,61.4531 25.7656,61.4063 25.7656,61.4063 L25.7969,61.4063 C27.7188,60.9688 31.2813,59.7344 33.6406,56.4375 C35.4375,53.9063 36.3125,49.2813 34.4688,45.3438 C33.3594,42.9531 30.8594,40 25.2344,39.5469 C22.7344,39.3438 20.4688,39.8594 18.4688,41.0625 C16.6563,42.1406 15.1563,43.7813 14.1094,45.7813 C11.6563,50.4844 12.1094,56.2188 15.2344,60.0625 C18.2031,63.6875 22.8125,66 28.25,66.5781 C29.1094,66.6719 29.9531,66.7031 30.7969,66.7031 C35.2344,66.7031 39.625,65.5 43.2031,63.2969 C46.8594,60.7188 48.9844,56.7344 49.6563,51.1094 C50.2188,46.4688 49.8281,40.5469 48.4375,32.4688 C48.0781,30.375 47.5313,27.3438 46.875,23.5938 C52.625,21.6719 56.7813,18.0938 60.5469,12.2344 C63.8438,6.5 64.7813,0.390625 63.3594,-5.92188 M29.1406,20.2969 C24.5,19.0781 20.0625,16.5781 16.3125,13.0625 C15,11.8438 13.125,9.67188 11.6563,6.28125 C10.2969,3.10938 9.625,-0.328125 9.6875,-3.90625 C9.75,-8.60938 11.0625,-13.4375 13.5625,-18.2188 C16.4844,-23.7969 21.0469,-29.3281 27.1094,-34.6563 C28.5625,-35.9375 29.9375,-37.2188 31.2188,-38.5 C31.9844,-34.2344 32.8125,-29.5469 33.6875,-24.6719 C29.8438,-23.4063 25.0938,-20.25 21.9844,-14.5938 C18.4375,-8.03125 18.5781,-2.5 19.3125,0.984375 C20.25,5.4375 22.7813,9.20313 26.2344,11.2969 C27.1719,11.8594 31.2969,13.9844 33.1406,13.4063 C33.5156,13.2969 33.7813,13.0625 33.9219,12.7344 C34.4375,11.5625 33.4063,10.9219 31.8594,9.96875 C31.25,9.59375 30.5781,9.17188 29.8594,8.64063 C26.5313,6.15625 25.0781,1.70313 26.1563,-2.6875 C26.7344,-5.07813 28.0156,-7.25 29.8594,-8.95313 C31.5156,-10.5 33.5625,-11.5938 35.9375,-12.2344 C37.9844,-0.984375 40.0469,10.1719 41.6875,18.5313 C41.8125,19.2188 41.9531,19.8906 42.0781,20.5625 C37.7031,21.5 33.3594,21.4063 29.1406,20.2969 M40.4688,-12.9063 C50.8125,-13.375 55.0781,-5.9375 55.9688,-1.10938 C56.4375,1.4375 56.4375,5.875 54.8906,10.0938 C53.7188,13.2656 51.2656,17.3438 46.125,19.4063 C46.0625,18.9844 45.9844,18.5469 45.9063,18.125 C44.3594,9.34375 42.4219,-1.65625 40.4688,-12.9063 M33.1406,-83.8594 C34.9219,-89.5938 37.6563,-92.8438 39.6563,-94.5781 C41.4063,-96.0938 43.0469,-96.8125 43.9688,-96.8125 C44.1094,-96.8125 44.2344,-96.7813 44.3281,-96.75 C44.7969,-96.6094 45.3281,-96.0469 45.7969,-95.1719 C48.1094,-90.8906 47.3594,-84.1719 46.0156,-79.7344 C44.3906,-74.3281 41.4688,-68.7188 32.6719,-59.1094 C32.5,-60.2188 32.3438,-61.2656 32.1875,-62.25 C30.9375,-70.5313 31.2656,-77.8125 33.1406,-83.8594"/>
</svg>
